<mxfile host="Electron" modified="2023-12-03T20:53:12.287Z" agent="Mozilla/5.0 (X11; Linux x86_64) AppleWebKit/537.36 (KHTML, like Gecko) draw.io/22.1.2 Chrome/114.0.5735.289 Electron/25.9.4 Safari/537.36" etag="BsK8fphiIpFi037qGJbP" version="22.1.2" type="device">
  <diagram name="PÃ¡gina-1" id="KL7hros_8gFtWswWTued">
    <mxGraphModel dx="1707" dy="1727" grid="1" gridSize="10" guides="1" tooltips="1" connect="1" arrows="1" fold="1" page="1" pageScale="1" pageWidth="827" pageHeight="1169" math="0" shadow="0">
      <root>
        <mxCell id="0" />
        <mxCell id="1" parent="0" />
        <mxCell id="5gahKNYFXIvYUjjZJqVw-31" style="rounded=0;orthogonalLoop=1;jettySize=auto;html=1;exitX=1;exitY=0.5;exitDx=0;exitDy=0;entryX=0;entryY=0.5;entryDx=0;entryDy=0;" edge="1" parent="1" source="l1Fr6kD5rfvGQ3E-aX6w-1" target="l1Fr6kD5rfvGQ3E-aX6w-3">
          <mxGeometry relative="1" as="geometry" />
        </mxCell>
        <mxCell id="5gahKNYFXIvYUjjZJqVw-32" style="rounded=0;orthogonalLoop=1;jettySize=auto;html=1;exitX=1;exitY=0.5;exitDx=0;exitDy=0;entryX=0;entryY=0.5;entryDx=0;entryDy=0;" edge="1" parent="1" source="l1Fr6kD5rfvGQ3E-aX6w-1" target="5gahKNYFXIvYUjjZJqVw-1">
          <mxGeometry relative="1" as="geometry" />
        </mxCell>
        <mxCell id="5gahKNYFXIvYUjjZJqVw-33" style="edgeStyle=none;shape=connector;rounded=0;orthogonalLoop=1;jettySize=auto;html=1;exitX=1;exitY=0.5;exitDx=0;exitDy=0;entryX=0;entryY=0.5;entryDx=0;entryDy=0;labelBackgroundColor=default;strokeColor=default;align=center;verticalAlign=middle;fontFamily=Helvetica;fontSize=11;fontColor=default;endArrow=classic;" edge="1" parent="1" source="l1Fr6kD5rfvGQ3E-aX6w-1" target="5gahKNYFXIvYUjjZJqVw-9">
          <mxGeometry relative="1" as="geometry" />
        </mxCell>
        <mxCell id="5gahKNYFXIvYUjjZJqVw-34" style="edgeStyle=none;shape=connector;rounded=0;orthogonalLoop=1;jettySize=auto;html=1;exitX=1;exitY=0.5;exitDx=0;exitDy=0;entryX=0;entryY=0.5;entryDx=0;entryDy=0;labelBackgroundColor=default;strokeColor=default;align=center;verticalAlign=middle;fontFamily=Helvetica;fontSize=11;fontColor=default;endArrow=classic;" edge="1" parent="1" source="l1Fr6kD5rfvGQ3E-aX6w-1" target="5gahKNYFXIvYUjjZJqVw-8">
          <mxGeometry relative="1" as="geometry" />
        </mxCell>
        <mxCell id="5gahKNYFXIvYUjjZJqVw-35" style="edgeStyle=none;shape=connector;rounded=0;orthogonalLoop=1;jettySize=auto;html=1;exitX=1;exitY=0.5;exitDx=0;exitDy=0;entryX=0;entryY=0.5;entryDx=0;entryDy=0;labelBackgroundColor=default;strokeColor=default;align=center;verticalAlign=middle;fontFamily=Helvetica;fontSize=11;fontColor=default;endArrow=classic;" edge="1" parent="1" source="l1Fr6kD5rfvGQ3E-aX6w-1" target="5gahKNYFXIvYUjjZJqVw-6">
          <mxGeometry relative="1" as="geometry" />
        </mxCell>
        <mxCell id="5gahKNYFXIvYUjjZJqVw-36" style="edgeStyle=none;shape=connector;rounded=0;orthogonalLoop=1;jettySize=auto;html=1;exitX=1;exitY=0.5;exitDx=0;exitDy=0;entryX=0;entryY=0.5;entryDx=0;entryDy=0;labelBackgroundColor=default;strokeColor=default;align=center;verticalAlign=middle;fontFamily=Helvetica;fontSize=11;fontColor=default;endArrow=classic;" edge="1" parent="1" source="l1Fr6kD5rfvGQ3E-aX6w-1" target="5gahKNYFXIvYUjjZJqVw-7">
          <mxGeometry relative="1" as="geometry" />
        </mxCell>
        <mxCell id="5gahKNYFXIvYUjjZJqVw-37" style="edgeStyle=none;shape=connector;rounded=0;orthogonalLoop=1;jettySize=auto;html=1;exitX=1;exitY=0.5;exitDx=0;exitDy=0;entryX=0;entryY=0.5;entryDx=0;entryDy=0;labelBackgroundColor=default;strokeColor=default;align=center;verticalAlign=middle;fontFamily=Helvetica;fontSize=11;fontColor=default;endArrow=classic;" edge="1" parent="1" source="l1Fr6kD5rfvGQ3E-aX6w-1" target="5gahKNYFXIvYUjjZJqVw-4">
          <mxGeometry relative="1" as="geometry" />
        </mxCell>
        <mxCell id="5gahKNYFXIvYUjjZJqVw-38" style="edgeStyle=none;shape=connector;rounded=0;orthogonalLoop=1;jettySize=auto;html=1;exitX=1;exitY=0.5;exitDx=0;exitDy=0;entryX=0;entryY=0.5;entryDx=0;entryDy=0;labelBackgroundColor=default;strokeColor=default;align=center;verticalAlign=middle;fontFamily=Helvetica;fontSize=11;fontColor=default;endArrow=classic;" edge="1" parent="1" source="l1Fr6kD5rfvGQ3E-aX6w-1" target="5gahKNYFXIvYUjjZJqVw-5">
          <mxGeometry relative="1" as="geometry" />
        </mxCell>
        <mxCell id="5gahKNYFXIvYUjjZJqVw-39" style="edgeStyle=none;shape=connector;rounded=0;orthogonalLoop=1;jettySize=auto;html=1;exitX=1;exitY=0.5;exitDx=0;exitDy=0;entryX=0;entryY=0.5;entryDx=0;entryDy=0;labelBackgroundColor=default;strokeColor=default;align=center;verticalAlign=middle;fontFamily=Helvetica;fontSize=11;fontColor=default;endArrow=classic;" edge="1" parent="1" source="l1Fr6kD5rfvGQ3E-aX6w-1" target="5gahKNYFXIvYUjjZJqVw-2">
          <mxGeometry relative="1" as="geometry" />
        </mxCell>
        <mxCell id="5gahKNYFXIvYUjjZJqVw-40" style="edgeStyle=none;shape=connector;rounded=0;orthogonalLoop=1;jettySize=auto;html=1;exitX=1;exitY=0.5;exitDx=0;exitDy=0;entryX=0;entryY=0.5;entryDx=0;entryDy=0;labelBackgroundColor=default;strokeColor=default;align=center;verticalAlign=middle;fontFamily=Helvetica;fontSize=11;fontColor=default;endArrow=classic;" edge="1" parent="1" source="l1Fr6kD5rfvGQ3E-aX6w-1" target="5gahKNYFXIvYUjjZJqVw-3">
          <mxGeometry relative="1" as="geometry" />
        </mxCell>
        <mxCell id="l1Fr6kD5rfvGQ3E-aX6w-1" value="LOGIN" style="rounded=0;whiteSpace=wrap;html=1;" parent="1" vertex="1">
          <mxGeometry x="-586.25" y="-330" width="90" height="30" as="geometry" />
        </mxCell>
        <mxCell id="l1Fr6kD5rfvGQ3E-aX6w-3" value="PRODUCTOS" style="rounded=0;whiteSpace=wrap;html=1;" parent="1" vertex="1">
          <mxGeometry x="-450" y="-478" width="90" height="30" as="geometry" />
        </mxCell>
        <mxCell id="5gahKNYFXIvYUjjZJqVw-1" value="INICIO" style="rounded=0;whiteSpace=wrap;html=1;" vertex="1" parent="1">
          <mxGeometry x="-450" y="-520" width="90" height="30" as="geometry" />
        </mxCell>
        <mxCell id="5gahKNYFXIvYUjjZJqVw-2" value="RANKING DE VENTAS POR PRODUCTO" style="rounded=0;whiteSpace=wrap;html=1;" vertex="1" parent="1">
          <mxGeometry x="-450" y="-182" width="140" height="30" as="geometry" />
        </mxCell>
        <mxCell id="5gahKNYFXIvYUjjZJqVw-3" value="SALIR" style="rounded=0;whiteSpace=wrap;html=1;" vertex="1" parent="1">
          <mxGeometry x="-450" y="-140" width="90" height="30" as="geometry" />
        </mxCell>
        <mxCell id="5gahKNYFXIvYUjjZJqVw-4" value="RANKING DE TOTAL VENTAS X CLIENTE" style="rounded=0;whiteSpace=wrap;html=1;" vertex="1" parent="1">
          <mxGeometry x="-450" y="-267" width="140" height="30" as="geometry" />
        </mxCell>
        <mxCell id="5gahKNYFXIvYUjjZJqVw-5" value="RANKING DE VENTAS POR SERVICIO" style="rounded=0;whiteSpace=wrap;html=1;" vertex="1" parent="1">
          <mxGeometry x="-450" y="-224" width="140" height="30" as="geometry" />
        </mxCell>
        <mxCell id="5gahKNYFXIvYUjjZJqVw-6" value="VENTAS" style="rounded=0;whiteSpace=wrap;html=1;" vertex="1" parent="1">
          <mxGeometry x="-450" y="-351" width="90" height="30" as="geometry" />
        </mxCell>
        <mxCell id="5gahKNYFXIvYUjjZJqVw-7" value="REPORTE DE STOCK" style="rounded=0;whiteSpace=wrap;html=1;" vertex="1" parent="1">
          <mxGeometry x="-450" y="-309" width="90" height="30" as="geometry" />
        </mxCell>
        <mxCell id="5gahKNYFXIvYUjjZJqVw-8" value="CLIENTES" style="rounded=0;whiteSpace=wrap;html=1;" vertex="1" parent="1">
          <mxGeometry x="-450" y="-393" width="90" height="30" as="geometry" />
        </mxCell>
        <mxCell id="5gahKNYFXIvYUjjZJqVw-9" value="SERVICIOS" style="rounded=0;whiteSpace=wrap;html=1;" vertex="1" parent="1">
          <mxGeometry x="-450" y="-436" width="90" height="30" as="geometry" />
        </mxCell>
        <mxCell id="5gahKNYFXIvYUjjZJqVw-50" style="edgeStyle=none;shape=connector;rounded=0;orthogonalLoop=1;jettySize=auto;html=1;exitX=1;exitY=0.5;exitDx=0;exitDy=0;entryX=0;entryY=0.5;entryDx=0;entryDy=0;labelBackgroundColor=default;strokeColor=default;align=center;verticalAlign=middle;fontFamily=Helvetica;fontSize=11;fontColor=default;endArrow=classic;" edge="1" parent="1" source="5gahKNYFXIvYUjjZJqVw-21" target="5gahKNYFXIvYUjjZJqVw-29">
          <mxGeometry relative="1" as="geometry" />
        </mxCell>
        <mxCell id="5gahKNYFXIvYUjjZJqVw-21" value="VER" style="rounded=0;whiteSpace=wrap;html=1;" vertex="1" parent="1">
          <mxGeometry x="-280" y="-495" width="90" height="30" as="geometry" />
        </mxCell>
        <mxCell id="5gahKNYFXIvYUjjZJqVw-22" value="ELIMINAR" style="rounded=0;whiteSpace=wrap;html=1;" vertex="1" parent="1">
          <mxGeometry x="-280" y="-457" width="90" height="30" as="geometry" />
        </mxCell>
        <mxCell id="5gahKNYFXIvYUjjZJqVw-23" value="NUEVO" style="rounded=0;whiteSpace=wrap;html=1;" vertex="1" parent="1">
          <mxGeometry x="-280" y="-537" width="90" height="30" as="geometry" />
        </mxCell>
        <mxCell id="5gahKNYFXIvYUjjZJqVw-25" value="VER" style="rounded=0;whiteSpace=wrap;html=1;" vertex="1" parent="1">
          <mxGeometry x="-280" y="-344" width="90" height="30" as="geometry" />
        </mxCell>
        <mxCell id="5gahKNYFXIvYUjjZJqVw-26" value="ELIMINAR" style="rounded=0;whiteSpace=wrap;html=1;" vertex="1" parent="1">
          <mxGeometry x="-280" y="-306" width="90" height="30" as="geometry" />
        </mxCell>
        <mxCell id="5gahKNYFXIvYUjjZJqVw-53" style="edgeStyle=none;shape=connector;rounded=0;orthogonalLoop=1;jettySize=auto;html=1;exitX=1;exitY=0.5;exitDx=0;exitDy=0;entryX=0;entryY=0.5;entryDx=0;entryDy=0;labelBackgroundColor=default;strokeColor=default;align=center;verticalAlign=middle;fontFamily=Helvetica;fontSize=11;fontColor=default;endArrow=classic;" edge="1" parent="1" source="5gahKNYFXIvYUjjZJqVw-27" target="5gahKNYFXIvYUjjZJqVw-28">
          <mxGeometry relative="1" as="geometry" />
        </mxCell>
        <mxCell id="5gahKNYFXIvYUjjZJqVw-27" value="NUEVO" style="rounded=0;whiteSpace=wrap;html=1;" vertex="1" parent="1">
          <mxGeometry x="-280" y="-386" width="90" height="30" as="geometry" />
        </mxCell>
        <mxCell id="5gahKNYFXIvYUjjZJqVw-28" value="AGREGAR ITEM" style="rounded=0;whiteSpace=wrap;html=1;" vertex="1" parent="1">
          <mxGeometry x="-160" y="-386" width="90" height="30" as="geometry" />
        </mxCell>
        <mxCell id="5gahKNYFXIvYUjjZJqVw-29" value="EDITAR" style="rounded=0;whiteSpace=wrap;html=1;" vertex="1" parent="1">
          <mxGeometry x="-170" y="-495" width="90" height="30" as="geometry" />
        </mxCell>
        <mxCell id="5gahKNYFXIvYUjjZJqVw-44" value="" style="shape=curlyBracket;whiteSpace=wrap;html=1;rounded=1;labelPosition=left;verticalLabelPosition=middle;align=right;verticalAlign=middle;fontFamily=Helvetica;fontSize=11;fontColor=default;" vertex="1" parent="1">
          <mxGeometry x="-310" y="-540" width="20" height="120" as="geometry" />
        </mxCell>
        <mxCell id="5gahKNYFXIvYUjjZJqVw-45" style="edgeStyle=none;shape=connector;rounded=0;orthogonalLoop=1;jettySize=auto;html=1;exitX=1;exitY=0.5;exitDx=0;exitDy=0;entryX=0.1;entryY=0.5;entryDx=0;entryDy=0;entryPerimeter=0;labelBackgroundColor=default;strokeColor=default;align=center;verticalAlign=middle;fontFamily=Helvetica;fontSize=11;fontColor=default;endArrow=classic;" edge="1" parent="1" source="5gahKNYFXIvYUjjZJqVw-9" target="5gahKNYFXIvYUjjZJqVw-44">
          <mxGeometry relative="1" as="geometry" />
        </mxCell>
        <mxCell id="5gahKNYFXIvYUjjZJqVw-47" style="edgeStyle=none;shape=connector;rounded=0;orthogonalLoop=1;jettySize=auto;html=1;exitX=1;exitY=0.5;exitDx=0;exitDy=0;entryX=0.1;entryY=0.5;entryDx=0;entryDy=0;entryPerimeter=0;labelBackgroundColor=default;strokeColor=default;align=center;verticalAlign=middle;fontFamily=Helvetica;fontSize=11;fontColor=default;endArrow=classic;" edge="1" parent="1" source="5gahKNYFXIvYUjjZJqVw-1" target="5gahKNYFXIvYUjjZJqVw-44">
          <mxGeometry relative="1" as="geometry" />
        </mxCell>
        <mxCell id="5gahKNYFXIvYUjjZJqVw-48" style="edgeStyle=none;shape=connector;rounded=0;orthogonalLoop=1;jettySize=auto;html=1;exitX=1;exitY=0.5;exitDx=0;exitDy=0;entryX=0.1;entryY=0.5;entryDx=0;entryDy=0;entryPerimeter=0;labelBackgroundColor=default;strokeColor=default;align=center;verticalAlign=middle;fontFamily=Helvetica;fontSize=11;fontColor=default;endArrow=classic;" edge="1" parent="1" source="l1Fr6kD5rfvGQ3E-aX6w-3" target="5gahKNYFXIvYUjjZJqVw-44">
          <mxGeometry relative="1" as="geometry" />
        </mxCell>
        <mxCell id="5gahKNYFXIvYUjjZJqVw-49" style="edgeStyle=none;shape=connector;rounded=0;orthogonalLoop=1;jettySize=auto;html=1;exitX=1;exitY=0.5;exitDx=0;exitDy=0;entryX=0.1;entryY=0.5;entryDx=0;entryDy=0;entryPerimeter=0;labelBackgroundColor=default;strokeColor=default;align=center;verticalAlign=middle;fontFamily=Helvetica;fontSize=11;fontColor=default;endArrow=classic;" edge="1" parent="1" source="5gahKNYFXIvYUjjZJqVw-8" target="5gahKNYFXIvYUjjZJqVw-44">
          <mxGeometry relative="1" as="geometry" />
        </mxCell>
        <mxCell id="5gahKNYFXIvYUjjZJqVw-51" value="" style="shape=curlyBracket;whiteSpace=wrap;html=1;rounded=1;labelPosition=left;verticalLabelPosition=middle;align=right;verticalAlign=middle;fontFamily=Helvetica;fontSize=11;fontColor=default;" vertex="1" parent="1">
          <mxGeometry x="-310" y="-396" width="20" height="120" as="geometry" />
        </mxCell>
        <mxCell id="5gahKNYFXIvYUjjZJqVw-52" style="edgeStyle=none;shape=connector;rounded=0;orthogonalLoop=1;jettySize=auto;html=1;exitX=1;exitY=0.5;exitDx=0;exitDy=0;entryX=0.1;entryY=0.5;entryDx=0;entryDy=0;entryPerimeter=0;labelBackgroundColor=default;strokeColor=default;align=center;verticalAlign=middle;fontFamily=Helvetica;fontSize=11;fontColor=default;endArrow=classic;" edge="1" parent="1" source="5gahKNYFXIvYUjjZJqVw-6" target="5gahKNYFXIvYUjjZJqVw-51">
          <mxGeometry relative="1" as="geometry" />
        </mxCell>
      </root>
    </mxGraphModel>
  </diagram>
</mxfile>
